<?xml version="1.0" standalone="no"?>
<!DOCTYPE svg PUBLIC "-//W3C//DTD SVG 20010904//EN"
 "http://www.w3.org/TR/2001/REC-SVG-20010904/DTD/svg10.dtd">
<svg version="1.0" xmlns="http://www.w3.org/2000/svg"
 width="171.000000pt" height="171.000000pt" viewBox="0 0 171.000000 171.000000"
 preserveAspectRatio="xMidYMid meet">
<metadata>
Created by potrace 1.14, written by Peter Selinger 2001-2017
</metadata>
<g transform="translate(0.000000,171.000000) scale(0.100000,-0.100000)"
fill="#000000" stroke="none">
<path d="M0 855 l0 -855 855 0 855 0 0 855 0 855 -855 0 -855 0 0 -855z m774
443 c10 -40 7 -44 -51 -62 -83 -26 -153 -64 -148 -79 7 -16 -102 -82 -136 -82
-26 0 -87 -47 -141 -107 -26 -30 -28 -31 -52 -14 -15 9 -26 23 -26 31 0 8 37
52 82 97 44 46 80 89 79 96 -1 8 3 20 10 28 6 7 9 20 6 27 -7 20 52 54 63 37
5 -7 15 -10 25 -6 10 3 23 1 31 -4 9 -8 21 -7 42 4 36 18 158 54 188 55 14 1
24 -7 28 -21z m286 8 c30 -7 78 -23 107 -34 31 -13 55 -18 58 -12 4 6 17 7 30
4 12 -3 26 -1 29 5 5 8 17 6 37 -5 23 -11 29 -20 24 -35 -4 -13 -1 -21 10 -25
9 -4 14 -13 10 -21 -3 -10 26 -48 81 -106 l86 -90 -25 -25 -26 -25 -78 72
c-58 53 -83 71 -98 67 -28 -7 -147 68 -139 87 5 14 -79 55 -168 83 -16 5 -28
12 -28 17 0 4 0 18 0 32 0 29 11 31 90 11z m-331 -471 c73 -118 136 -217 140
-219 4 -3 53 70 110 162 57 92 117 187 132 210 15 24 30 49 32 55 6 16 63 -18
59 -34 -2 -6 -73 -123 -158 -260 -105 -169 -161 -249 -172 -249 -16 0 -89 110
-304 460 l-37 60 27 15 c15 8 29 14 32 15 3 0 65 -97 139 -215z m-119 -222 l0
-123 -35 0 -35 0 0 172 0 172 35 -50 35 -49 0 -122z m600 47 l0 -170 -35 0
-35 0 0 122 c0 119 1 122 31 170 17 26 33 48 35 48 2 0 4 -76 4 -170z"/>
</g>
</svg>
